/* XPM */
static char *de4aaa087d294b51a65774bf0a729c18i88jIukw1NKF14Re[] = {
/* columns rows colors chars-per-pixel */
"32 32 4 1 ",
"  c None",
". c #C4AB00",
"X c #FFDE00",
"o c #E4FF00",
/* pixels */
"                                ",
"                                ",
"                                ",
"                                ",
"        ............            ",
"        ............            ",
"        ............            ",
"        ............            ",
"    ....oooooooooooo....        ",
"    ....oooooooooooo....        ",
"    ....oooooooooooo....        ",
"    ....oooooooooooo....        ",
"    ....ooooXXXXoooo....        ",
"    ....ooooXXXXoooo....        ",
"    ....ooooXXXXoooo....        ",
"    ....ooooXXXXoooo....        ",
"    ....ooooXXXXoooo....        ",
"    ....ooooXXXXoooo....        ",
"    ....ooooXXXXoooo....        ",
"    ....ooooXXXXoooo....        ",
"    ....oooooooooooo....        ",
"    ....oooooooooooo....        ",
"    ....oooooooooooo....        ",
"    ....oooooooooooo....        ",
"        ............            ",
"        ............            ",
"        ............            ",
"        ............            ",
"                                ",
"                                ",
"                                ",
"                                "
};
