/* XPM */
static char *_76a5f26a93f476c98769503128b6585mPXrFAAjlutIyJAN[] = {
/* columns rows colors chars-per-pixel */
"32 32 6 1 ",
"  c #042300",
". c #3D2000",
"X c #723B00",
"o c #007B00",
"O c #944D00",
"+ c #00B000",
/* pixels */
"                                ",
"                                ",
"                                ",
"                                ",
"++++oooo    ++++++++oooo    ++++",
"++++oooo    ++++++++oooo    ++++",
"++++oooo    ++++++++oooo    ++++",
"++++oooo    ++++++++oooo    ++++",
"oooo++++oooo    oooo++++oooo    ",
"oooo++++oooo    oooo++++oooo    ",
"oooo++++oooo    oooo++++oooo    ",
"oooo++++oooo    oooo++++oooo    ",
"            XXXX            XXXX",
"            XXXX            XXXX",
"            XXXX            XXXX",
"            XXXX            XXXX",
"XXXXXXXXXXXXXXXXXXXXXXXXXXXXXXXX",
"XXXXXXXXXXXXXXXXXXXXXXXXXXXXXXXX",
"....OOOOXX........XXXXXXOOOO....",
"....OOOOXX........XXXXXXOOOO....",
"....OOOOXX........XXXXXXOOOO....",
"....OOOOXX........XXXXXXOOOO....",
"XXXXXXXXXXXXXXXXXXXXXXXXXXXXXXXX",
"XXXXXXXXXXXXXXXXXXXXXXXXXXXXXXXX",
"........XXXXXXOOOOOOOO....XXXXXX",
"........XXXXXXOOOOOOOO....XXXXXX",
"........XXXXXXOOOOOOOO....XXXXXX",
"........XXXXXXOOOOOOOO....XXXXXX",
"OOOOOOOOXXXXXX........XXXXXX....",
"OOOOOOOOXXXXXX........XXXXXX....",
"OOOOOOOOXXXXXX........XXXXXX....",
"OOOOOOOOXXXXXX........XXXXXX...."
};
